<svg width="24" height="24" viewBox="0 0 24 24" fill="none" xmlns="http://www.w3.org/2000/svg">
<path d="M20.7745 20.7285L20.1362 13.7055L19.498 6.6825C19.462 6.2955 19.138 6 18.7495 6H16.4995V4.5C16.4995 3.294 16.033 2.1615 15.1855 1.314C14.338 0.4665 13.2055 0 11.9995 0C9.51846 0 7.49946 2.019 7.49946 4.5V6H5.24946C4.86096 6 4.53696 6.2955 4.50246 6.6825L3.22596 20.7285C3.14946 21.5655 3.43146 22.4025 3.99846 23.0235C4.56546 23.6445 5.37246 24 6.21396 24H17.7865C18.628 24 19.435 23.6445 20.002 23.0235C20.569 22.4025 20.8495 21.5655 20.7745 20.7285ZM8.99946 4.5C8.99946 2.8455 10.345 1.5 11.9995 1.5C12.805 1.5 13.5595 1.8105 14.125 2.3745C14.6905 2.9385 14.9995 3.6945 14.9995 4.5V6H8.99946V4.5ZM18.8935 22.0125C18.6055 22.326 18.2125 22.5 17.785 22.5H6.21396C5.78796 22.5 5.39346 22.326 5.10696 22.011C4.81896 21.696 4.68246 21.2895 4.72146 20.8635L5.93496 7.5H7.49946V9.75C7.49946 10.164 7.83546 10.5 8.24946 10.5C8.66346 10.5 8.99946 10.164 8.99946 9.75V7.5H14.9995V9.75C14.9995 10.164 15.3355 10.5 15.7495 10.5C16.1635 10.5 16.4995 10.164 16.4995 9.75V7.5H18.064L19.279 20.865C19.318 21.2895 19.1815 21.6975 18.8935 22.0125Z" fill="#626262"/>
</svg>
