<svg width="200" height="200" viewBox="0 0 200 200" fill="none" xmlns="http://www.w3.org/2000/svg">
<ellipse cx="100" cy="100.5" rx="87" ry="87.5" fill="#D0556C" fill-opacity="0.25"/>
<mask id="mask0_246_3573" style="mask-type:alpha" maskUnits="userSpaceOnUse" x="13" y="13" width="174" height="175">
<ellipse cx="100" cy="100.5" rx="87" ry="87.5" fill="#DBE3F5"/>
</mask>
<g mask="url(#mask0_246_3573)">
<path fill-rule="evenodd" clip-rule="evenodd" d="M65.0462 18.8956L34.7353 36.3956C33.6353 37.0308 33.2583 38.4374 33.8935 39.5375C34.5286 40.6376 35.9353 41.0145 37.0353 40.3793L67.3462 22.8793C68.4463 22.2442 68.8232 20.8376 68.1881 19.7375C67.553 18.6374 66.1463 18.2605 65.0462 18.8956ZM34.1353 35.3564C32.4613 36.3229 31.8877 38.4635 32.8542 40.1375C33.8207 41.8115 35.9613 42.3851 37.6353 41.4186L67.9462 23.9186C69.6202 22.9521 70.1938 20.8115 69.2273 19.1375C68.2608 17.4635 66.1202 16.8899 64.4462 17.8564L34.1353 35.3564ZM62.9219 43.2159L44.7353 53.7159C43.6353 54.3511 43.2583 55.7577 43.8935 56.8578C44.5286 57.9579 45.9353 58.3348 47.0353 57.6997L65.2219 47.1997C66.3219 46.5645 66.6988 45.1579 66.0637 44.0578C65.4286 42.9577 64.0219 42.5808 62.9219 43.2159ZM44.1353 52.6767C42.4613 53.6432 41.8877 55.7838 42.8542 57.4578C43.8207 59.1318 45.9613 59.7054 47.6353 58.7389L65.8219 48.2389C67.4959 47.2724 68.0695 45.1318 67.103 43.4578C66.1365 41.7838 63.9959 41.2102 62.3219 42.1767L44.1353 52.6767ZM12.982 72.0489L35.2091 59.2161C36.3091 58.581 37.7158 58.9579 38.3509 60.058C38.986 61.1581 38.6091 62.5647 37.5091 63.1999L15.282 76.0327C14.1819 76.6678 12.7752 76.2909 12.1401 75.1908C11.505 74.0907 11.8819 72.6841 12.982 72.0489ZM11.1009 75.7908C10.1344 74.1168 10.7079 71.9762 12.382 71.0097L34.6091 58.1769C36.2831 57.2104 38.4236 57.784 39.3901 59.458C40.3566 61.132 39.7831 63.2726 38.1091 64.2391L15.882 77.0719C14.2079 78.0384 12.0674 77.4648 11.1009 75.7908ZM131.975 14.8952L106.893 29.3766C105.793 30.0117 105.416 31.4184 106.051 32.5185C106.686 33.6185 108.093 33.9954 109.193 33.3603L134.275 18.8789C135.376 18.2438 135.752 16.8371 135.117 15.7371C134.482 14.637 133.076 14.2601 131.975 14.8952ZM106.293 28.3374C104.619 29.3039 104.045 31.4444 105.012 33.1184C105.978 34.7925 108.119 35.366 109.793 34.3995L134.875 19.9182C136.549 18.9517 137.123 16.8111 136.157 15.1371C135.19 13.463 133.049 12.8895 131.375 13.856L106.293 28.3374ZM19.4244 79.8766L97.3667 34.8766C98.4668 34.2415 99.8735 34.6184 100.509 35.7184C101.144 36.8185 100.767 38.2252 99.6667 38.8603L21.7244 83.8603C20.6244 84.4954 19.2177 84.1185 18.5826 83.0184C17.9475 81.9184 18.3244 80.5117 19.4244 79.8766ZM17.5434 83.6184C16.5769 81.9444 17.1504 79.8039 18.8244 78.8374L96.7667 33.8374C98.4408 32.8709 100.581 33.4444 101.548 35.1184C102.514 36.7925 101.941 38.933 100.267 39.8995L22.3244 84.8995C20.6504 85.866 18.5099 85.2925 17.5434 83.6184ZM8.78269 86.0206L9.89815 85.3766C10.9982 84.7415 12.4049 85.1184 13.04 86.2185C13.6751 87.3185 13.2982 88.7252 12.1982 89.3603L11.0827 90.0043C9.98262 90.6395 8.57596 90.2626 7.94083 89.1625C7.30571 88.0624 7.68262 86.6558 8.78269 86.0206ZM6.9016 89.7625C5.93511 88.0885 6.50867 85.9479 8.18269 84.9814L9.29815 84.3374C10.9722 83.3709 13.1127 83.9444 14.0792 85.6185C15.0457 87.2925 14.4722 89.4331 12.7982 90.3996L11.6827 91.0436C10.0087 92.0101 7.8681 91.4365 6.9016 89.7625ZM72.4482 37.7159L119.158 10.7478C120.258 10.1127 121.665 10.4896 122.3 11.5897C122.935 12.6897 122.558 14.0964 121.458 14.7315L74.7482 41.6997C73.6481 42.3348 72.2414 41.9579 71.6063 40.8578C70.9712 39.7577 71.3481 38.3511 72.4482 37.7159ZM70.5671 41.4578C69.6006 39.7838 70.1741 37.6432 71.8482 36.6767L118.558 9.70858C120.232 8.74208 122.373 9.31565 123.339 10.9897C124.306 12.6637 123.732 14.8043 122.058 15.7708L75.3482 42.7389C73.6741 43.7054 71.5336 43.1318 70.5671 41.4578ZM74.5725 13.3956L82.3402 8.91093C83.4403 8.2758 84.847 8.65271 85.4821 9.75278C86.1172 10.8529 85.7403 12.2595 84.6402 12.8946L76.8725 17.3793C75.7724 18.0145 74.3658 17.6376 73.7306 16.5375C73.0955 15.4374 73.4724 14.0308 74.5725 13.3956ZM72.6914 17.1375C71.7249 15.4635 72.2985 13.3229 73.9725 12.3564L81.7402 7.8717C83.4143 6.9052 85.5548 7.47876 86.5213 9.15278C87.4878 10.8268 86.9143 12.9674 85.2402 13.9339L77.4725 18.4186C75.7985 19.3851 73.6579 18.8115 72.6914 17.1375ZM53.5917 37.0558L8.55842 63.0558C7.45835 63.6909 7.08143 65.0976 7.71656 66.1976C8.35169 67.2977 9.75835 67.6746 10.8584 67.0395L55.8917 41.0395C56.9918 40.4044 57.3687 38.9977 56.7336 37.8976C56.0985 36.7976 54.6918 36.4207 53.5917 37.0558ZM7.95842 62.0166C6.2844 62.9831 5.71083 65.1236 6.67733 66.7976C7.64383 68.4717 9.7844 69.0452 11.4584 68.0787L56.4917 42.0787C58.1658 41.1122 58.7393 38.9717 57.7728 37.2976C56.8063 35.6236 54.6658 35.0501 52.9917 36.0166L7.95842 62.0166ZM63.118 31.5558L94.2949 13.5558C95.395 12.9207 96.8017 13.2976 97.4368 14.3976C98.0719 15.4977 97.695 16.9044 96.5949 17.5395L65.418 35.5395C64.3179 36.1746 62.9113 35.7977 62.2762 34.6976C61.641 33.5976 62.0179 32.1909 63.118 31.5558ZM61.2369 35.2976C60.2704 33.6236 60.844 31.4831 62.518 30.5166L93.6949 12.5166C95.3689 11.5501 97.5095 12.1236 98.476 13.7976C99.4425 15.4717 98.8689 17.6122 97.1949 18.5787L66.018 36.5787C64.344 37.5452 62.2034 36.9717 61.2369 35.2976ZM108.269 5.48802L103.821 8.05579C102.721 8.69091 102.344 10.0976 102.979 11.1976C103.614 12.2977 105.021 12.6746 106.121 12.0395L110.569 9.47174C111.669 8.83662 112.046 7.42995 111.411 6.32988C110.775 5.22981 109.369 4.8529 108.269 5.48802ZM103.221 7.01656C101.547 7.98306 100.974 10.1236 101.94 11.7976C102.907 13.4717 105.047 14.0452 106.721 13.0787L111.169 10.511C112.843 9.54447 113.416 7.40391 112.45 5.72988C111.483 4.05586 109.343 3.48229 107.669 4.44879L103.221 7.01656ZM14.8982 94.0367L62.5296 66.5367C63.6296 65.9016 65.0363 66.2785 65.6714 67.3786C66.3065 68.4787 65.9296 69.8853 64.8296 70.5205L17.1982 98.0205C16.0981 98.6556 14.6914 98.2787 14.0563 97.1786C13.4212 96.0785 13.7981 94.6719 14.8982 94.0367ZM13.0171 97.7786C12.0506 96.1046 12.6241 93.964 14.2982 92.9975L61.9296 65.4975C63.6036 64.531 65.7441 65.1046 66.7106 66.7786C67.6771 68.4526 67.1036 70.5932 65.4296 71.5597L17.7982 99.0597C16.1241 100.026 13.9836 99.4526 13.0171 97.7786ZM97.1706 46.5367L72.0558 61.0367C70.9558 61.6719 70.5789 63.0785 71.214 64.1786C71.8491 65.2787 73.2558 65.6556 74.3558 65.0205L99.4706 50.5205C100.571 49.8853 100.948 48.4787 100.312 47.3786C99.6773 46.2785 98.2707 45.9016 97.1706 46.5367ZM71.4558 59.9975C69.7818 60.964 69.2083 63.1046 70.1748 64.7786C71.1413 66.4526 73.2818 67.0262 74.9558 66.0597L100.071 51.5597C101.745 50.5932 102.318 48.4526 101.352 46.7786C100.385 45.1046 98.2446 44.531 96.5706 45.4975L71.4558 59.9975ZM106.697 41.0367L142.62 20.2968C143.72 19.6616 145.126 20.0385 145.761 21.1386C146.397 22.2387 146.02 23.6453 144.92 24.2805L108.997 45.0205C107.897 45.6556 106.49 45.2787 105.855 44.1786C105.22 43.0785 105.597 41.6719 106.697 41.0367ZM104.816 44.7786C103.849 43.1046 104.423 40.964 106.097 39.9975L142.02 19.2575C143.694 18.291 145.834 18.8646 146.801 20.5386C147.767 22.2126 147.194 24.3532 145.52 25.3197L109.597 46.0597C107.923 47.0262 105.782 46.4526 104.816 44.7786ZM122.367 78.1779L44.4244 123.178C43.3244 123.813 42.9475 125.22 43.5826 126.32C44.2177 127.42 45.6244 127.797 46.7244 127.162L124.667 82.1616C125.767 81.5264 126.144 80.1198 125.509 79.0197C124.873 77.9196 123.467 77.5427 122.367 78.1779ZM43.8244 122.139C42.1504 123.105 41.5769 125.246 42.5434 126.92C43.5099 128.594 45.6504 129.167 47.3244 128.201L125.267 83.2008C126.941 82.2343 127.514 80.0937 126.548 78.4197C125.581 76.7457 123.441 76.1721 121.767 77.1386L43.8244 122.139ZM20.1757 137.178L34.8982 128.678C35.9982 128.043 37.4049 128.42 38.04 129.52C38.6751 130.62 38.2982 132.026 37.1982 132.662L22.4757 141.162C21.3757 141.797 19.969 141.42 19.3339 140.32C18.6987 139.22 19.0757 137.813 20.1757 137.178ZM18.2946 140.92C17.3281 139.246 17.9017 137.105 19.5757 136.139L34.2982 127.639C35.9722 126.672 38.1127 127.246 39.0792 128.92C40.0457 130.594 39.4722 132.734 37.7982 133.701L23.0757 142.201C21.4017 143.167 19.2611 142.594 18.2946 140.92ZM176.926 46.6779L131.893 72.6779C130.793 73.313 130.416 74.7196 131.051 75.8197C131.686 76.9198 133.093 77.2967 134.193 76.6616L179.226 50.6616C180.326 50.0264 180.703 48.6198 180.068 47.5197C179.433 46.4196 178.026 46.0427 176.926 46.6779ZM131.293 71.6386C129.619 72.6051 129.045 74.7457 130.012 76.4197C130.978 78.0937 133.119 78.6673 134.793 77.7008L179.826 51.7008C181.5 50.7343 182.074 48.5937 181.107 46.9197C180.141 45.2457 178 44.6721 176.326 45.6386L131.293 71.6386ZM15.1757 128.517L60.2091 102.517C61.3091 101.882 62.7158 102.259 63.3509 103.359C63.986 104.459 63.6091 105.866 62.5091 106.501L17.4757 132.501C16.3757 133.136 14.969 132.759 14.3339 131.659C13.6987 130.559 14.0757 129.152 15.1757 128.517ZM13.2946 132.259C12.3281 130.585 12.9017 128.444 14.5757 127.478L59.6091 101.478C61.2831 100.511 63.4236 101.085 64.3901 102.759C65.3566 104.433 64.7831 106.574 63.1091 107.54L18.0757 133.54C16.4017 134.507 14.2611 133.933 13.2946 132.259ZM87.9219 86.5172L69.7353 97.0172C68.6353 97.6523 68.2583 99.059 68.8935 100.159C69.5286 101.259 70.9353 101.636 72.0353 101.001L90.2219 90.5009C91.3219 89.8658 91.6988 88.4591 91.0637 87.3591C90.4286 86.259 89.0219 85.8821 87.9219 86.5172ZM69.1353 95.978C67.4613 96.9445 66.8877 99.085 67.8542 100.759C68.8207 102.433 70.9613 103.007 72.6353 102.04L90.8219 91.5402C92.4959 90.5737 93.0695 88.4331 92.103 86.7591C91.1365 85.085 88.9959 84.5115 87.3219 85.478L69.1353 95.978ZM97.4482 81.0172L169 39.7065C170.101 39.0713 171.507 39.4482 172.142 40.5483C172.777 41.6484 172.401 43.055 171.3 43.6902L99.7482 85.0009C98.6481 85.6361 97.2414 85.2591 96.6063 84.1591C95.9712 83.059 96.3481 81.6523 97.4482 81.0172ZM95.5671 84.7591C94.6006 83.085 95.1741 80.9445 96.8482 79.978L168.4 38.6672C170.075 37.7007 172.215 38.2743 173.182 39.9483C174.148 41.6223 173.575 43.7629 171.9 44.7294L100.348 86.0402C98.6741 87.0067 96.5336 86.4331 95.5671 84.7591ZM50.2091 85.1971L10.4238 108.167C9.32373 108.802 8.94682 110.209 9.58195 111.309C10.2171 112.409 11.6237 112.786 12.7238 112.151L52.5091 89.1808C53.6091 88.5457 53.986 87.139 53.3509 86.0389C52.7158 84.9389 51.3091 84.562 50.2091 85.1971ZM9.82381 107.128C8.14978 108.094 7.57622 110.235 8.54272 111.909C9.50922 113.583 11.6498 114.157 13.3238 113.19L53.1091 90.22C54.7831 89.2535 55.3566 87.113 54.3901 85.4389C53.4236 83.7649 51.2831 83.1914 49.6091 84.1579L9.82381 107.128ZM59.7353 79.6969L90.0462 62.1969C91.1463 61.5618 92.553 61.9387 93.1881 63.0388C93.8232 64.1388 93.4463 65.5455 92.3462 66.1806L62.0353 83.6806C60.9353 84.3157 59.5286 83.9388 58.8935 82.8388C58.2583 81.7387 58.6353 80.332 59.7353 79.6969ZM57.8542 83.4388C56.8877 81.7647 57.4613 79.6242 59.1353 78.6577L89.4462 61.1577C91.1202 60.1912 93.2608 60.7647 94.2273 62.4388C95.1938 64.1128 94.6202 66.2533 92.9462 67.2198L62.6353 84.7198C60.9613 85.6863 58.8207 85.1128 57.8542 83.4388ZM151.151 26.9181L99.5725 56.6969C98.4724 57.332 98.0955 58.7387 98.7306 59.8388C99.3658 60.9388 100.772 61.3157 101.873 60.6806L153.451 30.9018C154.551 30.2666 154.928 28.86 154.293 27.7599C153.658 26.6598 152.251 26.2829 151.151 26.9181ZM98.9725 55.6577C97.2985 56.6242 96.7249 58.7647 97.6914 60.4388C98.6579 62.1128 100.798 62.6863 102.473 61.7198L154.051 31.941C155.725 30.9745 156.299 28.8339 155.332 27.1599C154.366 25.4859 152.225 24.9123 150.551 25.8788L98.9725 55.6577ZM33.5584 106.357L78.5917 80.3571C79.6918 79.7219 81.0985 80.0988 81.7336 81.1989C82.3687 82.299 81.9918 83.7056 80.8917 84.3408L35.8584 110.341C34.7583 110.976 33.3517 110.599 32.7166 109.499C32.0814 108.399 32.4583 106.992 33.5584 106.357ZM31.6773 110.099C30.7108 108.425 31.2844 106.284 32.9584 105.318L77.9917 79.3178C79.6658 78.3513 81.8063 78.9249 82.7728 80.5989C83.7393 82.2729 83.1658 84.4135 81.4917 85.38L36.4584 111.38C34.7844 112.347 32.6438 111.773 31.6773 110.099ZM119.295 56.8571L88.118 74.8571C87.0179 75.4922 86.641 76.8988 87.2762 77.9989C87.9113 79.099 89.3179 79.4759 90.418 78.8408L121.595 60.8408C122.695 60.2056 123.072 58.799 122.437 57.6989C121.802 56.5988 120.395 56.2219 119.295 56.8571ZM87.518 73.8178C85.844 74.7843 85.2704 76.9249 86.2369 78.5989C87.2034 80.2729 89.344 80.8465 91.018 79.88L122.195 61.88C123.869 60.9135 124.443 58.7729 123.476 57.0989C122.51 55.4249 120.369 54.8513 118.695 55.8178L87.518 73.8178ZM128.821 51.3571L160.606 33.0059C161.706 32.3708 163.113 32.7477 163.748 33.8477C164.383 34.9478 164.006 36.3545 162.906 36.9896L131.121 55.3408C130.021 55.9759 128.614 55.599 127.979 54.4989C127.344 53.3988 127.721 51.9922 128.821 51.3571ZM126.94 55.0989C125.974 53.4249 126.547 51.2843 128.221 50.3178L160.006 31.9667C161.68 31.0002 163.821 31.5737 164.787 33.2477C165.754 34.9218 165.18 37.0623 163.506 38.0288L131.721 56.38C130.047 57.3465 127.907 56.7729 126.94 55.0989ZM24.0321 111.857L10.1757 119.857C9.07566 120.492 8.69874 121.899 9.33387 122.999C9.969 124.099 11.3757 124.476 12.4757 123.841L26.3321 115.841C27.4322 115.206 27.8091 113.799 27.174 112.699C26.5389 111.599 25.1322 111.222 24.0321 111.857ZM9.57573 118.818C7.90171 119.784 7.32814 121.925 8.29464 123.599C9.26114 125.273 11.4017 125.846 13.0757 124.88L26.9321 116.88C28.6062 115.914 29.1797 113.773 28.2132 112.099C27.2467 110.425 25.1062 109.851 23.4321 110.818L9.57573 118.818ZM79.7353 114.338L127.367 86.838C128.467 86.2029 129.873 86.5798 130.509 87.6799C131.144 88.7799 130.767 90.1866 129.667 90.8217L82.0353 118.322C80.9353 118.957 79.5286 118.58 78.8935 117.48C78.2583 116.38 78.6353 114.973 79.7353 114.338ZM77.8542 118.08C76.8877 116.406 77.4613 114.265 79.1353 113.299L126.767 85.7988C128.441 84.8323 130.581 85.4058 131.548 87.0799C132.514 88.7539 131.941 90.8945 130.267 91.861L82.6353 119.361C80.9613 120.327 78.8207 119.754 77.8542 118.08ZM176.73 58.338L151.615 72.838C150.515 73.4731 150.138 74.8798 150.774 75.9799C151.409 77.0799 152.815 77.4569 153.915 76.8217L179.03 62.3217C180.13 61.6866 180.507 60.2799 179.872 59.1799C179.237 58.0798 177.83 57.7029 176.73 58.338ZM151.015 71.7988C149.341 72.7653 148.768 74.9058 149.734 76.5799C150.701 78.2539 152.841 78.8275 154.515 77.861L179.63 63.361C181.304 62.3945 181.878 60.2539 180.911 58.5799C179.945 56.9058 177.804 56.3323 176.13 57.2988L151.015 71.7988ZM25.1757 145.838L70.209 119.838C71.3091 119.203 72.7158 119.58 73.3509 120.68C73.986 121.78 73.6091 123.187 72.5091 123.822L27.4757 149.822C26.3757 150.457 24.969 150.08 24.3339 148.98C23.6987 147.88 24.0757 146.473 25.1757 145.838ZM23.2946 149.58C22.3281 147.906 22.9017 145.765 24.5757 144.799L69.609 118.799C71.2831 117.832 73.4236 118.406 74.3901 120.08C75.3566 121.754 74.7831 123.894 73.109 124.861L28.0757 150.861C26.4017 151.827 24.2611 151.254 23.2946 149.58ZM147.367 121.479L69.4244 166.479C68.3244 167.114 67.9475 168.521 68.5826 169.621C69.2177 170.721 70.6244 171.098 71.7244 170.463L149.667 125.463C150.767 124.828 151.144 123.421 150.509 122.321C149.873 121.221 148.467 120.844 147.367 121.479ZM68.8244 165.44C67.1504 166.406 66.5769 168.547 67.5434 170.221C68.5099 171.895 70.6504 172.469 72.3244 171.502L150.267 126.502C151.941 125.536 152.514 123.395 151.548 121.721C150.581 120.047 148.441 119.473 146.767 120.44L68.8244 165.44ZM53.633 175.596L59.8981 171.979C60.9982 171.344 62.4049 171.721 63.04 172.821C63.6751 173.921 63.2982 175.328 62.1981 175.963L55.933 179.58C54.8329 180.215 53.4263 179.838 52.7912 178.738C52.156 177.638 52.5329 176.231 53.633 175.596ZM51.7519 179.338C50.7854 177.664 51.359 175.524 53.033 174.557L59.2981 170.94C60.9721 169.973 63.1127 170.547 64.0792 172.221C65.0457 173.895 64.4721 176.036 62.7981 177.002L56.533 180.619C54.859 181.586 52.7184 181.012 51.7519 179.338ZM188.857 97.5248L156.893 115.979C155.793 116.614 155.416 118.021 156.051 119.121C156.686 120.221 158.093 120.598 159.193 119.963L191.157 101.508C192.257 100.873 192.634 99.4667 191.999 98.3666C191.364 97.2665 189.957 96.8896 188.857 97.5248ZM156.293 114.94C154.619 115.906 154.045 118.047 155.012 119.721C155.978 121.395 158.119 121.969 159.793 121.002L191.757 102.548C193.431 101.581 194.004 99.4406 193.038 97.7666C192.071 96.0926 189.931 95.519 188.257 96.4855L156.293 114.94ZM45.8302 168.554L85.209 145.818C86.3091 145.183 87.7158 145.56 88.3509 146.66C88.986 147.76 88.6091 149.167 87.509 149.802L48.1302 172.538C47.0301 173.173 45.6235 172.796 44.9884 171.696C44.3532 170.596 44.7301 169.189 45.8302 168.554ZM43.9491 172.296C42.9826 170.622 43.5562 168.481 45.2302 167.515L84.609 144.779C86.283 143.813 88.4236 144.386 89.3901 146.06C90.3566 147.734 89.783 149.875 88.109 150.841L48.7302 173.577C47.0562 174.543 44.9156 173.97 43.9491 172.296ZM112.922 129.818L94.7353 140.318C93.6353 140.954 93.2583 142.36 93.8935 143.46C94.5286 144.56 95.9353 144.937 97.0353 144.302L115.222 133.802C116.322 133.167 116.699 131.76 116.064 130.66C115.429 129.56 114.022 129.183 112.922 129.818ZM94.1353 139.279C92.4613 140.246 91.8877 142.386 92.8542 144.06C93.8207 145.734 95.9613 146.308 97.6353 145.341L115.822 134.841C117.496 133.875 118.069 131.734 117.103 130.06C116.136 128.386 113.996 127.813 112.322 128.779L94.1353 139.279ZM122.448 124.318L187.35 86.8475C188.45 86.2123 189.857 86.5893 190.492 87.6893C191.127 88.7894 190.75 90.1961 189.65 90.8312L124.748 128.302C123.648 128.937 122.241 128.56 121.606 127.46C120.971 126.36 121.348 124.954 122.448 124.318ZM120.567 128.06C119.601 126.386 120.174 124.246 121.848 123.279L186.75 85.8082C188.424 84.8417 190.564 85.4153 191.531 87.0893C192.497 88.7634 191.924 90.9039 190.25 91.8704L125.348 129.341C123.674 130.308 121.534 129.734 120.567 128.06ZM75.209 128.498L30.1757 154.498C29.0757 155.133 28.6987 156.54 29.3339 157.64C29.969 158.74 31.3757 159.117 32.4757 158.482L77.5091 132.482C78.6091 131.847 78.986 130.44 78.3509 129.34C77.7158 128.24 76.3091 127.863 75.209 128.498ZM29.5757 153.459C27.9017 154.425 27.3281 156.566 28.2946 158.24C29.2611 159.914 31.4017 160.488 33.0757 159.521L78.1091 133.521C79.7831 132.555 80.3566 130.414 79.3901 128.74C78.4236 127.066 76.2831 126.492 74.6091 127.459L29.5757 153.459ZM84.7353 122.998L115.046 105.498C116.146 104.863 117.553 105.24 118.188 106.34C118.823 107.44 118.446 108.847 117.346 109.482L87.0353 126.982C85.9353 127.617 84.5286 127.24 83.8935 126.14C83.2583 125.04 83.6353 123.633 84.7353 122.998ZM82.8542 126.74C81.8877 125.066 82.4613 122.925 84.1353 121.959L114.446 104.459C116.12 103.492 118.261 104.066 119.227 105.74C120.194 107.414 119.62 109.555 117.946 110.521L87.6353 128.021C85.9613 128.988 83.8207 128.414 82.8542 126.74ZM184.328 65.4982L124.572 99.9982C123.472 100.633 123.095 102.04 123.731 103.14C124.366 104.24 125.772 104.617 126.872 103.982L186.628 69.4819C187.728 68.8468 188.105 67.4401 187.47 66.34C186.835 65.24 185.428 64.863 184.328 65.4982ZM123.972 98.9589C122.298 99.9254 121.725 102.066 122.691 103.74C123.658 105.414 125.798 105.988 127.472 105.021L187.228 70.5211C188.902 69.5546 189.476 67.414 188.509 65.74C187.543 64.066 185.402 63.4924 183.728 64.4589L123.972 98.9589ZM58.5584 149.658L103.592 123.658C104.692 123.023 106.098 123.4 106.734 124.5C107.369 125.6 106.992 127.007 105.892 127.642L60.8584 153.642C59.7583 154.277 58.3517 153.9 57.7166 152.8C57.0814 151.7 57.4583 150.293 58.5584 149.658ZM56.6773 153.4C55.7108 151.726 56.2844 149.586 57.9584 148.619L102.992 122.619C104.666 121.653 106.806 122.226 107.773 123.9C108.739 125.574 108.166 127.715 106.492 128.681L61.4584 154.681C59.7844 155.648 57.6438 155.074 56.6773 153.4ZM144.295 100.158L113.118 118.158C112.018 118.793 111.641 120.2 112.276 121.3C112.911 122.4 114.318 122.777 115.418 122.142L146.595 104.142C147.695 103.507 148.072 102.1 147.437 101C146.802 99.9001 145.395 99.5232 144.295 100.158ZM112.518 117.119C110.844 118.086 110.27 120.226 111.237 121.9C112.203 123.574 114.344 124.148 116.018 123.181L147.195 105.181C148.869 104.215 149.443 102.074 148.476 100.4C147.51 98.7262 145.369 98.1526 143.695 99.1191L112.518 117.119ZM153.821 94.6583L186.73 75.6583C187.83 75.0232 189.237 75.4001 189.872 76.5002C190.507 77.6003 190.13 79.0069 189.03 79.642L156.121 98.642C155.021 99.2772 153.614 98.9003 152.979 97.8002C152.344 96.7001 152.721 95.2934 153.821 94.6583ZM151.94 98.4002C150.974 96.7262 151.547 94.5856 153.221 93.6191L186.13 74.6191C187.804 73.6526 189.945 74.2262 190.911 75.9002C191.878 77.5742 191.304 79.7148 189.63 80.6813L156.721 99.6813C155.047 100.648 152.907 100.074 151.94 98.4002ZM49.0321 155.158L35.1757 163.158C34.0757 163.793 33.6987 165.2 34.3339 166.3C34.969 167.4 36.3757 167.777 37.4757 167.142L51.3321 159.142C52.4322 158.507 52.8091 157.1 52.174 156C51.5389 154.9 50.1322 154.523 49.0321 155.158ZM34.5757 162.119C32.9017 163.086 32.3281 165.226 33.2946 166.9C34.2611 168.574 36.4017 169.148 38.0757 168.181L51.9321 160.181C53.6062 159.215 54.1797 157.074 53.2132 155.4C52.2467 153.726 50.1062 153.153 48.4321 154.119L34.5757 162.119ZM136.893 81.338L142.089 78.338C143.189 77.7029 144.596 78.0798 145.231 79.1799C145.866 80.2799 145.489 81.6866 144.389 82.3217L139.193 85.3217C138.093 85.9569 136.686 85.58 136.051 84.4799C135.416 83.3798 135.793 81.9731 136.893 81.338ZM135.012 85.0799C134.045 83.4058 134.619 81.2653 136.293 80.2988L141.489 77.2988C143.163 76.3323 145.304 76.9058 146.27 78.5799C147.237 80.2539 146.663 82.3945 144.989 83.361L139.793 86.361C138.119 87.3275 135.978 86.7539 135.012 85.0799ZM97.8071 161.639L64.6599 180.777C63.5598 181.412 63.1829 182.819 63.818 183.919C64.4532 185.019 65.8598 185.396 66.9599 184.761L100.107 165.623C101.207 164.988 101.584 163.581 100.949 162.481C100.314 161.381 98.9072 161.004 97.8071 161.639ZM64.0599 179.738C62.3859 180.704 61.8123 182.845 62.7788 184.519C63.7453 186.193 65.8859 186.766 67.5599 185.8L100.707 166.662C102.381 165.696 102.955 163.555 101.988 161.881C101.022 160.207 98.8811 159.634 97.2071 160.6L64.0599 179.738ZM122.056 147.639L147.171 133.139C148.271 132.504 149.677 132.881 150.312 133.981C150.948 135.081 150.571 136.488 149.471 137.123L124.356 151.623C123.256 152.258 121.849 151.881 121.214 150.781C120.579 149.681 120.956 148.274 122.056 147.639ZM120.175 151.381C119.208 149.707 119.782 147.567 121.456 146.6L146.571 132.1C148.245 131.134 150.385 131.707 151.352 133.381C152.318 135.055 151.745 137.196 150.071 138.162L124.956 152.662C123.282 153.629 121.141 153.055 120.175 151.381ZM186.944 110.176L156.697 127.639C155.597 128.274 155.22 129.681 155.855 130.781C156.49 131.881 157.897 132.258 158.997 131.623L189.244 114.16C190.344 113.525 190.721 112.118 190.086 111.018C189.451 109.918 188.044 109.541 186.944 110.176ZM156.097 126.6C154.423 127.567 153.849 129.707 154.816 131.381C155.782 133.055 157.923 133.629 159.597 132.662L189.844 115.199C191.518 114.232 192.092 112.092 191.125 110.418C190.159 108.744 188.018 108.17 186.344 109.137L156.097 126.6ZM119.735 183.62L137.922 173.12C139.022 172.485 140.429 172.862 141.064 173.962C141.699 175.062 141.322 176.468 140.222 177.103L122.035 187.603C120.935 188.239 119.529 187.862 118.893 186.762C118.258 185.662 118.635 184.255 119.735 183.62ZM117.854 187.362C116.888 185.688 117.461 183.547 119.135 182.581L137.322 172.081C138.996 171.114 141.136 171.688 142.103 173.362C143.069 175.036 142.496 177.176 140.822 178.143L122.635 188.643C120.961 189.609 118.821 189.036 117.854 187.362ZM175.059 151.679L147.448 167.62C146.348 168.255 145.971 169.662 146.606 170.762C147.241 171.862 148.648 172.239 149.748 171.603L177.359 155.662C178.459 155.027 178.836 153.621 178.201 152.521C177.566 151.42 176.159 151.044 175.059 151.679ZM146.848 166.581C145.174 167.547 144.601 169.688 145.567 171.362C146.534 173.036 148.674 173.609 150.348 172.643L177.959 156.702C179.633 155.735 180.207 153.595 179.24 151.92C178.274 150.246 176.133 149.673 174.459 150.639L146.848 166.581ZM77.7861 184.745L100.209 171.799C101.309 171.164 102.716 171.541 103.351 172.641C103.986 173.741 103.609 175.148 102.509 175.783L80.0861 188.729C78.986 189.364 77.5793 188.987 76.9442 187.887C76.3091 186.787 76.686 185.38 77.7861 184.745ZM75.905 188.487C74.9385 186.813 75.512 184.672 77.1861 183.706L99.609 170.76C101.283 169.794 103.424 170.367 104.39 172.041C105.357 173.715 104.783 175.856 103.109 176.822L80.6861 189.768C79.012 190.735 76.8715 190.161 75.905 188.487ZM140.046 148.799L109.735 166.299C108.635 166.935 108.258 168.341 108.893 169.441C109.529 170.541 110.935 170.918 112.035 170.283L142.346 152.783C143.446 152.148 143.823 150.741 143.188 149.641C142.553 148.541 141.146 148.164 140.046 148.799ZM109.135 165.26C107.461 166.227 106.888 168.367 107.854 170.041C108.821 171.715 110.961 172.289 112.635 171.322L142.946 153.822C144.62 152.856 145.194 150.715 144.227 149.041C143.261 147.367 141.12 146.794 139.446 147.76L109.135 165.26ZM149.572 143.299L184.786 122.969C185.886 122.334 187.293 122.711 187.928 123.811C188.563 124.911 188.186 126.318 187.086 126.953L151.872 147.283C150.772 147.918 149.366 147.541 148.731 146.441C148.096 145.341 148.472 143.935 149.572 143.299ZM147.691 147.041C146.725 145.367 147.298 143.227 148.972 142.26L184.186 121.93C185.86 120.963 188.001 121.537 188.967 123.211C189.934 124.885 189.36 127.025 187.686 127.992L152.472 148.322C150.798 149.289 148.658 148.715 147.691 147.041ZM128.592 166.96L91.237 188.526C90.1369 189.162 89.76 190.568 90.3951 191.668C91.0303 192.768 92.4369 193.145 93.537 192.51L130.892 170.943C131.992 170.308 132.369 168.902 131.734 167.802C131.098 166.702 129.692 166.325 128.592 166.96ZM90.637 187.487C88.963 188.454 88.3894 190.594 89.3559 192.268C90.3224 193.942 92.463 194.516 94.137 193.549L131.492 171.983C133.166 171.016 133.739 168.876 132.773 167.202C131.806 165.528 129.666 164.954 127.992 165.92L90.637 187.487ZM138.118 161.46L169.295 143.46C170.395 142.824 171.802 143.201 172.437 144.301C173.072 145.402 172.695 146.808 171.595 147.443L140.418 165.443C139.318 166.078 137.911 165.702 137.276 164.601C136.641 163.501 137.018 162.095 138.118 161.46ZM136.237 165.201C135.27 163.527 135.844 161.387 137.518 160.42L168.695 142.42C170.369 141.454 172.51 142.027 173.476 143.701C174.443 145.375 173.869 147.516 172.195 148.483L141.018 166.483C139.344 167.449 137.203 166.875 136.237 165.201ZM182.67 135.737L178.821 137.96C177.721 138.595 177.344 140.001 177.979 141.101C178.614 142.202 180.021 142.578 181.121 141.943L184.97 139.721C186.07 139.086 186.447 137.679 185.812 136.579C185.177 135.479 183.77 135.102 182.67 135.737ZM178.221 136.92C176.547 137.887 175.974 140.027 176.94 141.701C177.907 143.375 180.047 143.949 181.721 142.983L185.57 140.76C187.244 139.794 187.818 137.653 186.851 135.979C185.885 134.305 183.744 133.732 182.07 134.698L178.221 136.92ZM107.333 156.139L112.53 153.139C113.63 152.504 115.036 152.881 115.671 153.981C116.307 155.081 115.93 156.488 114.83 157.123L109.633 160.123C108.533 160.758 107.127 160.381 106.492 159.281C105.856 158.181 106.233 156.774 107.333 156.139ZM105.452 159.881C104.486 158.207 105.059 156.067 106.733 155.1L111.93 152.1C113.604 151.134 115.744 151.707 116.711 153.381C117.677 155.055 117.104 157.196 115.43 158.162L110.233 161.162C108.559 162.129 106.419 161.555 105.452 159.881Z" fill="white"/>
</g>
<path d="M100 73.75C98.7 72.775 97.1542 72.1813 95.5358 72.0354C93.9174 71.8894 92.2903 72.1971 90.8369 72.9238C89.3835 73.6505 88.1611 74.7676 87.3068 76.1499C86.4525 77.5321 86 79.125 86 80.75V86H82.5C81.5717 86 80.6815 86.3688 80.0251 87.0251C79.3687 87.6815 79 88.5717 79 89.5V117.5C79 120.285 80.1062 122.955 82.0754 124.925C84.0445 126.894 86.7152 128 89.5 128H112.25C114.571 128 116.796 127.078 118.437 125.437C120.078 123.796 121 121.571 121 119.25V89.5C121 88.5717 120.631 87.6815 119.975 87.0251C119.318 86.3688 118.428 86 117.5 86H114V80.75C114 79.125 113.547 77.5321 112.693 76.1499C111.839 74.7676 110.617 73.6505 109.163 72.9238C107.71 72.1971 106.083 71.8894 104.464 72.0354C102.846 72.1813 101.3 72.775 100 73.75V73.75ZM89.5 80.75C89.5 79.3576 90.0531 78.0223 91.0377 77.0377C92.0223 76.0531 93.3576 75.5 94.75 75.5C96.1424 75.5 97.4777 76.0531 98.4623 77.0377C99.4469 78.0223 100 79.3576 100 80.75V86H89.5V80.75ZM102.334 76.382C103.125 75.854 104.044 75.5507 104.994 75.5043C105.944 75.4579 106.888 75.6703 107.726 76.1188C108.565 76.5672 109.266 77.2349 109.754 78.0506C110.243 78.8662 110.5 79.7993 110.5 80.75V86H103.5V80.75C103.5 79.161 103.076 77.67 102.334 76.382ZM89.5 124.5C87.6435 124.5 85.863 123.763 84.5503 122.45C83.2375 121.137 82.5 119.357 82.5 117.5V89.5H103.5V119.25C103.5 121.221 104.151 123.037 105.25 124.5H89.5ZM117.5 119.25C117.5 120.642 116.947 121.978 115.962 122.962C114.978 123.947 113.642 124.5 112.25 124.5C110.858 124.5 109.522 123.947 108.538 122.962C107.553 121.978 107 120.642 107 119.25V89.5H117.5V119.25Z" fill="black"/>
<circle cx="100" cy="100" r="98" stroke="#D0556C" stroke-opacity="0.25" stroke-width="4"/>
</svg>
